<?xml version="1.0" encoding="UTF-8" standalone="no"?>
<svg
   xmlns:dc="http://purl.org/dc/elements/1.1/"
   xmlns:cc="http://creativecommons.org/ns#"
   xmlns:rdf="http://www.w3.org/1999/02/22-rdf-syntax-ns#"
   xmlns:svg="http://www.w3.org/2000/svg"
   xmlns="http://www.w3.org/2000/svg"
   xmlns:sodipodi="http://sodipodi.sourceforge.net/DTD/sodipodi-0.dtd"
   xmlns:inkscape="http://www.inkscape.org/namespaces/inkscape"
   viewBox="0 0 128 128"
   version="1.1"
   id="svg18"
   sodipodi:docname="face-crying-light.svg"
   inkscape:version="0.92.2 2405546, 2018-03-11">
  <metadata
     id="metadata22">
    <rdf:RDF>
      <cc:Work
         rdf:about="">
        <dc:format>image/svg+xml</dc:format>
        <dc:type
           rdf:resource="http://purl.org/dc/dcmitype/StillImage" />
        <dc:title></dc:title>
      </cc:Work>
    </rdf:RDF>
  </metadata>
  <sodipodi:namedview
     pagecolor="#ffffff"
     bordercolor="#666666"
     borderopacity="1"
     objecttolerance="10"
     gridtolerance="10"
     guidetolerance="10"
     inkscape:pageopacity="0"
     inkscape:pageshadow="2"
     inkscape:window-width="684"
     inkscape:window-height="480"
     id="namedview20"
     showgrid="false"
     inkscape:zoom="1.84375"
     inkscape:cx="60.010526"
     inkscape:cy="50.023488"
     inkscape:window-x="356"
     inkscape:window-y="72"
     inkscape:window-maximized="0"
     inkscape:current-layer="svg18" />
  <defs
     id="defs4">
    <style
       id="style2">.cls-1{fill:#2e2f42;}</style>
  </defs>
  <g
     data-name="Layer 2"
     id="Layer_2">
    <g
       id="Export">
      <path
         class="cls-1"
         d="M64,3A61,61,0,1,1,3,64,61.06,61.06,0,0,1,64,3m0-3a64,64,0,1,0,64,64A64,64,0,0,0,64,0Z"
         id="path8"
         style="fill:#fafafa;fill-opacity:1" />
      <path
         class="cls-1"
         d="M85.57,49.28a1.5,1.5,0,0,0-1.5,1.5v9a1.5,1.5,0,0,0,3,0v-9A1.5,1.5,0,0,0,85.57,49.28Z"
         id="path10"
         style="fill:#fafafa;fill-opacity:1" />
      <path
         class="cls-1"
         d="M42.43,49.28a1.5,1.5,0,0,0-1.5,1.5v9a1.5,1.5,0,0,0,3,0v-9A1.5,1.5,0,0,0,42.43,49.28Z"
         id="path12"
         style="fill:#fafafa;fill-opacity:1" />
      <path
         class="cls-1"
         d="M87.11,92.08a41,41,0,0,0-26-7.22,40.13,40.13,0,0,0-9.48,1.88,18,18,0,0,0-2.72-7.8C47,76,44.67,74.33,42.43,74.33S37.84,76,36,78.94c-2.2,3.42-4,9.11-1.79,13.9,1.38,3,4.47,6,8.26,6s6.89-3,8.27-6a11,11,0,0,0,.86-2.92,36.88,36.88,0,0,1,9.76-2.07,37.94,37.94,0,0,1,24.09,6.7,1.51,1.51,0,0,0,2.08-.38A1.49,1.49,0,0,0,87.11,92.08ZM48,91.59c-.68,1.49-2.71,4.3-5.54,4.3s-4.85-2.81-5.53-4.3c-1.58-3.45-.34-8,1.58-11,1.27-2,2.82-3.23,4-3.23s2.69,1.27,4,3.23C48.31,83.56,49.55,88.14,48,91.59Z"
         id="path14"
         style="fill:#fafafa;fill-opacity:1" />
    </g>
  </g>
</svg>
