<?xml version="1.0" encoding="UTF-8"?>
<svg width="128" height="128" version="1.1" viewBox="0 0 128 128" xmlns="http://www.w3.org/2000/svg" xmlns:cc="http://creativecommons.org/ns#" xmlns:dc="http://purl.org/dc/elements/1.1/" xmlns:rdf="http://www.w3.org/1999/02/22-rdf-syntax-ns#">
 <metadata>
  <rdf:RDF>
   <cc:Work rdf:about="">
    <dc:format>image/svg+xml</dc:format>
    <dc:type rdf:resource="http://purl.org/dc/dcmitype/StillImage"/>
    <dc:title/>
   </cc:Work>
  </rdf:RDF>
 </metadata>
 <style>.st0{fill:#7289DA;}</style>
 <path class="st0" d="m52.545 54.153c-3.6422 0-6.5176 3.1949-6.5176 7.0927 0 3.8978 2.9393 7.0927 6.5176 7.0927 3.6422 0 6.5176-3.1949 6.5176-7.0927 0.0639-3.8978-2.8754-7.0927-6.5176-7.0927zm23.323 0c-3.6422 0-6.5176 3.1949-6.5176 7.0927 0 3.8978 2.9393 7.0927 6.5176 7.0927 3.6422 0 6.5176-3.1949 6.5176-7.0927 0-3.8978-2.8754-7.0927-6.5176-7.0927z" fill="#7289da" stroke-width=".63898"/>
 <path class="st0" d="m106.92 0.54237h-85.624c-7.2205 0-13.099 5.8786-13.099 13.163v86.391c0 7.2844 5.8786 13.163 13.099 13.163h72.461l-3.3866-11.821 8.179 7.6039 7.7317 7.1566 13.738 12.141v-114.63c0-7.2844-5.8786-13.163-13.099-13.163zm-24.665 83.451s-2.3003-2.7476-4.2173-5.1758c8.3707-2.3642 11.566-7.6039 11.566-7.6039-2.6198 1.7253-5.1119 2.9393-7.3483 3.77-3.1949 1.3419-6.262 2.2364-9.2653 2.7476-6.1342 1.1502-11.757 0.83068-16.55-0.0639-3.6422-0.70288-6.7732-1.7253-9.3931-2.7476-1.4697-0.57508-3.0671-1.278-4.6646-2.1725-0.1917-0.1278-0.38339-0.1917-0.57508-0.31949-0.1278-0.0639-0.1917-0.1278-0.25559-0.19169-1.1502-0.63898-1.7892-1.0863-1.7892-1.0863s3.0671 5.1119 11.182 7.54c-1.9169 2.4281-4.2812 5.3036-4.2812 5.3036-14.122-0.44729-19.489-9.7125-19.489-9.7125 0-20.575 9.2014-37.253 9.2014-37.253 9.2014-6.901 17.955-6.7093 17.955-6.7093l0.63898 0.76678c-11.502 3.3227-16.805 8.3707-16.805 8.3707s1.4058-0.76678 3.77-1.8531c6.8371-3.0032 12.268-3.8339 14.505-4.0256 0.38339-0.0639 0.70288-0.1278 1.0863-0.1278 3.8978-0.51119 8.3068-0.63898 12.907-0.1278 6.0703 0.70288 12.588 2.492 19.233 6.1342 0 0-5.048-4.7924-15.911-8.1151l0.89458-1.0224s8.7541-0.1917 17.955 6.7093c0 0 9.2014 16.677 9.2014 37.253 0 0-5.4314 9.2653-19.553 9.7125z" fill="#7289da" stroke-width=".63898"/>
</svg>
