<?xml version="1.0" encoding="UTF-8" standalone="no"?>
<svg
   xmlns:dc="http://purl.org/dc/elements/1.1/"
   xmlns:cc="http://creativecommons.org/ns#"
   xmlns:rdf="http://www.w3.org/1999/02/22-rdf-syntax-ns#"
   xmlns:svg="http://www.w3.org/2000/svg"
   xmlns="http://www.w3.org/2000/svg"
   xmlns:sodipodi="http://sodipodi.sourceforge.net/DTD/sodipodi-0.dtd"
   xmlns:inkscape="http://www.inkscape.org/namespaces/inkscape"
   width="128"
   height="128"
   version="1.1"
   viewBox="0 0 128 128"
   xml:space="preserve"
   id="svg13"
   sodipodi:docname="email.svg"
   inkscape:version="0.92.2 2405546, 2018-03-11"><defs
     id="defs17" /><sodipodi:namedview
     pagecolor="#ffffff"
     bordercolor="#666666"
     borderopacity="1"
     objecttolerance="10"
     gridtolerance="10"
     guidetolerance="10"
     inkscape:pageopacity="1"
     inkscape:pageshadow="2"
     inkscape:window-width="1366"
     inkscape:window-height="717"
     id="namedview15"
     showgrid="false"
     inkscape:zoom="5.2149125"
     inkscape:cx="82.521878"
     inkscape:cy="82.81446"
     inkscape:window-x="0"
     inkscape:window-y="28"
     inkscape:window-maximized="1"
     inkscape:current-layer="svg13" /><metadata
     id="metadata2"><rdf:RDF><cc:Work
         rdf:about=""><dc:format>image/svg+xml</dc:format><dc:type
           rdf:resource="http://purl.org/dc/dcmitype/StillImage" /><dc:title></dc:title></cc:Work></rdf:RDF></metadata><style
     type="text/css"
     id="style4">
	.st0{fill:#134563;}
</style><rect
     style="fill:#ffffff;fill-opacity:1;stroke:#ffffff;stroke-width:10.87756538;stroke-miterlimit:4;stroke-dasharray:none;stroke-opacity:1"
     id="rect868"
     width="107.59863"
     height="79.031303"
     x="9.7514677"
     y="24.816395" /><g
     transform="matrix(2.6701 0 0 2.6701 -21.578 -21.712)"
     id="g11"><g
       id="Icon-Envelope"
       transform="translate(78,232)"
       fill="#134563"><path
         class="st0"
         d="m-22.5-213.2-1.9-1.9-17.6 17.6c-2.2 2.2-5.9 2.2-8.1 0l-17.6-17.5-1.9 1.9 13.1 13.1-13.1 13.1 1.9 1.9 13.1-13.1 2.6 2.6c1.6 1.6 3.7 2.5 5.9 2.5s4.3-0.9 5.9-2.5l2.6-2.6 13.1 13.1 1.9-1.9-13.1-13.1 13.2-13.2"
         id="path6" /><path
         class="st0"
         d="m-26.2-181.6h-39.5c-2.3 0-4.2-1.9-4.2-4.2v-28.2c0-2.3 1.9-4.2 4.2-4.2h39.5c2.3 0 4.2 1.9 4.2 4.2v28.2c0 2.3-1.9 4.2-4.2 4.2zm-39.6-33.9c-0.8 0-1.4 0.6-1.4 1.4v28.2c0 0.8 0.6 1.4 1.4 1.4h39.5c0.8 0 1.4-0.6 1.4-1.4v-28.2c0-0.8-0.6-1.4-1.4-1.4z"
         id="path8" /></g></g></svg>