<?xml version="1.0" encoding="UTF-8"?>
<!-- Created with Inkscape (http://www.inkscape.org/) -->
<svg width="128" height="128" version="1.1" viewBox="0 0 33.867 33.867" xmlns="http://www.w3.org/2000/svg" xmlns:cc="http://creativecommons.org/ns#" xmlns:dc="http://purl.org/dc/elements/1.1/" xmlns:rdf="http://www.w3.org/1999/02/22-rdf-syntax-ns#">
 <metadata>
  <rdf:RDF>
   <cc:Work rdf:about="">
    <dc:format>image/svg+xml</dc:format>
    <dc:type rdf:resource="http://purl.org/dc/dcmitype/StillImage"/>
    <dc:title/>
   </cc:Work>
  </rdf:RDF>
 </metadata>
 <path d="m16.931 0.1472c-9.2694 0-16.784 7.7059-16.784 17.211 0 7.6042 4.8094 14.055 11.48 16.331 0.83978 0.15766 1.1459-0.374 1.1459-0.83054 0-0.40783-0.01468-1.4909-0.02276-2.9267-4.6692 1.0397-5.6544-2.3076-5.6544-2.3076-0.76361-1.9874-1.8641-2.5167-1.8641-2.5167-1.5241-1.0683 0.11541-1.0471 0.11541-1.0471 1.6848 0.12263 2.5711 1.774 2.5711 1.774 1.4974 2.6299 3.9293 1.8703 4.8856 1.4307 0.15259-1.1125 0.5854-1.8713 1.0655-2.3012-3.7272-0.4343-7.6464-1.9114-7.6464-8.5066 0-1.8786 0.65437-3.4149 1.7282-4.6184-0.17312-0.43528-0.74918-2.185 0.16386-4.5549 0 0 1.4098-0.4628 4.6167 1.7646 1.3386-0.38145 2.7751-0.57272 4.2024-0.57907 1.4252 0.016158 2.8617 0.19772 4.2024 0.57907 3.205-2.2274 4.6115-1.7646 4.6115-1.7646 0.91612 2.3699 0.34008 4.1196 0.16692 4.5549 1.0758 1.2035 1.726 2.7398 1.726 4.6184 0 6.6122-3.9251 8.0671-7.6649 8.4928 0.60285 0.5314 1.1397 1.5817 1.1397 3.1878 0 2.3002-0.02036 4.1567-0.02036 4.7208 0 0.4608 0.30196 0.99637 1.1542 0.82841 6.6653-2.2812 11.47-8.7273 11.47-16.329 0-9.5061-7.5165-17.211-16.788-17.211" fill="#1b1817" fill-rule="evenodd" stroke-width="1.0492"/>
</svg>
