<?xml version="1.0" encoding="UTF-8"?>
<!-- Created with Inkscape (http://www.inkscape.org/) -->
<svg width="128" height="128" version="1.1" viewBox="0 0 33.867 33.867" xmlns="http://www.w3.org/2000/svg" xmlns:cc="http://creativecommons.org/ns#" xmlns:dc="http://purl.org/dc/elements/1.1/" xmlns:rdf="http://www.w3.org/1999/02/22-rdf-syntax-ns#">
 <metadata>
  <rdf:RDF>
   <cc:Work rdf:about="">
    <dc:format>image/svg+xml</dc:format>
    <dc:type rdf:resource="http://purl.org/dc/dcmitype/StillImage"/>
    <dc:title/>
   </cc:Work>
  </rdf:RDF>
 </metadata>
 <path d="m16.933 0.54952c-9.276 0-16.797 7.5209-16.797 16.799 0 7.4219 4.8128 13.718 11.488 15.94 0.84048 0.15376 1.1467-0.36508 1.1467-0.81058 0-0.39806-0.01459-1.4551-0.02341-2.8566-4.6726 1.0147-5.6584-2.2522-5.6584-2.2522-0.76417-1.9408-1.8656-2.4575-1.8656-2.4575-1.5252-1.0416 0.11547-1.0209 0.11547-1.0209 1.6861 0.11868 2.573 1.7315 2.573 1.7315 1.4984 2.5668 3.9322 1.8253 4.8892 1.3953 0.15259-1.0849 0.58573-1.8254 1.0663-2.245-3.7301-0.42384-7.6519-1.8656-7.6519-8.3026 0-1.8335 0.65483-3.333 1.7294-4.5076-0.17335-0.42486-0.74972-2.1327 0.16399-4.4457 0 0 1.4107-0.4517 4.62 1.7221 1.3396-0.37332 2.7772-0.55895 4.2055-0.56512 1.4262 0.0063 2.8638 0.19176 4.2055 0.56512 3.2072-2.1739 4.6148-1.7221 4.6148-1.7221 0.91678 2.3131 0.34029 4.0209 0.16721 4.4457 1.0767 1.1746 1.7273 2.6741 1.7273 4.5076 0 6.4535-3.9281 7.8736-7.6704 8.2891 0.60326 0.51872 1.1406 1.5438 1.1406 3.1113 0 2.245-0.02047 4.0569-0.02047 4.6076 0 0.44965 0.30217 0.97247 1.155 0.8085 6.6701-2.2264 11.479-8.5181 11.479-15.937 0-9.2781-7.522-16.799-16.8-16.799" fill="#fff" fill-rule="evenodd" stroke-width="1.0499"/>
</svg>
